# xmcd CD database file
#
# Track frame offsets:
#	150
#	18837
#	33357
#	47645
#
# Disc length: 928 seconds
#
# Revision: 0
# Processed by: cddbd v1.5.1PL0 Copyright (c) Steve Scherf et al.
# Submitted via: CDex 1.51
#
DISCID=24039e04
DTITLE=FLOW - 贈る言葉
DYEAR=1900
DGENRE=J Pop
TTITLE0=メロス
TTITLE1=贈る言葉
TTITLE2=贈る言葉ａ
TTITLE3=僕に捧げるバラード
EXTD=
EXTT0=
EXTT1=
EXTT2=
EXTT3=
PLAYORDER=
